<svg xmlns="http://www.w3.org/2000/svg" width="58.962" height="44.051" viewBox="0 0 58.962 44.051"><defs><style>.a{fill:#1ba651;}</style></defs><g transform="translate(-1483 -1058.928)"><path class="a" d="M44.969,13.675a1.119,1.119,0,0,0-.631-.747.957.957,0,0,0-.919.1L11.659,35.344l-3.1-.668A3.609,3.609,0,0,0,5,35.983a4.59,4.59,0,0,0-.845,4.052L6.572,49.19a4.063,4.063,0,0,0,2.685,2.888,3.585,3.585,0,0,0,3.629-1.005l2.207-2.332,7.546-.036,1.583,6a2.812,2.812,0,0,0,2.629,2.189c.2.165,6.622-2.054,7.015-2.149a3.118,3.118,0,0,0,1.863-3.772l-.614-2.329L52.79,48.56a1.015,1.015,0,0,0,.823-.465,1.261,1.261,0,0,0,.168-1.007ZM11.457,49.408a1.641,1.641,0,0,1-1.664.463,1.86,1.86,0,0,1-1.23-1.326L6.148,39.389a2.131,2.131,0,0,1,.279-1.7A1.717,1.717,0,0,1,7.815,36.9c.1-.037,2.937.6,3.128.637L13.5,47.244Zm22.281,2.212a.758.758,0,0,1-.455.919L27.04,54.563a.663.663,0,0,1-.828-.5L24.8,48.694l8.158-.039Zm-18.285-5.18L13,37.126l30.368-21.34L51.4,46.267Z" transform="translate(1478.997 1046.076)"/><path class="a" d="M50.68,27.61a1.152,1.152,0,0,0,1.426.781l5.569-1.629a1.15,1.15,0,1,0-.645-2.208l-5.569,1.629a1.15,1.15,0,0,0-.782,1.427Z" transform="translate(1480.558 1047.823)"/><path class="a" d="M50.09,23.063a1.147,1.147,0,0,0,.828-.352L55.555,17.9A1.15,1.15,0,1,0,53.9,16.3l-4.638,4.811a1.157,1.157,0,0,0,.828,1.948Z" transform="translate(1480.305 1046.54)"/><path class="a" d="M60.265,33.369l-6.5-1.554a1.15,1.15,0,1,0-.535,2.237l6.5,1.553a1.15,1.15,0,1,0,.535-2.237Z" transform="translate(1480.814 1048.914)"/></g></svg>