<svg xmlns="http://www.w3.org/2000/svg" xmlns:xlink="http://www.w3.org/1999/xlink" width="34.346" height="24.043" viewBox="0 0 34.346 24.043"><defs><style>.a{fill:#fff;}.b{clip-path:url(#a);}</style><clipPath id="a"><rect class="a" width="34.346" height="24.043" transform="translate(0 0)"/></clipPath></defs><g transform="translate(0 0)"><g class="b" transform="translate(0 0)"><path class="a" d="M33.628,3.755A4.3,4.3,0,0,0,30.591.718C27.914,0,17.173,0,17.173,0S6.432,0,3.755.718A4.3,4.3,0,0,0,.718,3.755,44.664,44.664,0,0,0,0,12.022a44.665,44.665,0,0,0,.718,8.267,4.3,4.3,0,0,0,3.036,3.036c2.678.718,13.418.718,13.418.718s10.741,0,13.418-.718a4.3,4.3,0,0,0,3.037-3.036,44.665,44.665,0,0,0,.718-8.267,44.936,44.936,0,0,0-.718-8.267M13.735,17.174V6.871l8.923,5.151Z" transform="translate(0 0)"/></g></g></svg>