<svg xmlns="http://www.w3.org/2000/svg" width="24.894" height="24.894" viewBox="0 0 24.894 24.894"><defs><style>.a{fill:#fff;}</style></defs><path class="a" d="M21.209,21.214H17.522V15.437c0-1.377-.028-3.15-1.921-3.15-1.922,0-2.216,1.5-2.216,3.048v5.878H9.7V9.335h3.541v1.619h.048a3.885,3.885,0,0,1,3.5-1.919c3.735,0,4.426,2.458,4.426,5.658v6.52ZM5.536,7.71A2.141,2.141,0,1,1,7.677,5.568,2.139,2.139,0,0,1,5.536,7.71Zm1.848,13.5h-3.7V9.335h3.7ZM23.053,0H1.837A1.815,1.815,0,0,0,0,1.793V23.1a1.814,1.814,0,0,0,1.837,1.793H23.05A1.821,1.821,0,0,0,24.894,23.1V1.793A1.822,1.822,0,0,0,23.05,0Z"/></svg>