<svg xmlns="http://www.w3.org/2000/svg" xmlns:xlink="http://www.w3.org/1999/xlink" width="30" height="30" viewBox="0 0 30 30"><defs><style>.a{fill:#9b9b9b;}.b{clip-path:url(#a);}</style><clipPath id="a"><rect class="a" width="30" height="30" transform="translate(0 0.014)"/></clipPath></defs><g transform="translate(0 0.433)"><g class="b" transform="translate(0 -0.447)"><path class="a" d="M22.473,36.909l7.218,7.218a1.226,1.226,0,0,0,2.023-.118l6.7-6.808a1.242,1.242,0,0,0,.357-1.091.874.874,0,0,0-.557-.679,1.272,1.272,0,0,0-1.428.22l-6.155,6.176-6.2-6.176a1.253,1.253,0,0,0-1.448-.22,1.313,1.313,0,0,0-.515,1.478" transform="translate(-15.754 -24.477)"/></g></g></svg>