<svg xmlns="http://www.w3.org/2000/svg" width="28.065" height="28.065" viewBox="0 0 28.065 28.065"><defs><style>.a{fill:#1ba651;}</style></defs><g transform="translate(-32 -32)"><path class="a" d="M46.033,32A14.033,14.033,0,1,0,60.065,46.033,14.034,14.034,0,0,0,46.033,32Zm7.2,9.341L44.517,52.523c-.069.069-.182.219-.319.219a.461.461,0,0,1-.319-.182c-.081-.081-4.943-4.755-4.943-4.755l-.094-.094a.326.326,0,0,1,0-.4.818.818,0,0,0,.069-.075c.482-.507,1.46-1.535,1.522-1.6.081-.081.15-.188.3-.188s.257.132.332.207,2.819,2.713,2.819,2.713l6.973-8.958a.357.357,0,0,1,.219-.088.351.351,0,0,1,.219.081l1.917,1.51a.351.351,0,0,1,.081.219A.325.325,0,0,1,53.231,41.341Z"/></g></svg>