<svg xmlns="http://www.w3.org/2000/svg" width="56.784" height="45.539" viewBox="0 0 56.784 45.539"><defs><style>.a{fill:#1ba651;}</style></defs><g transform="translate(-0.508 -1.246)"><path class="a" d="M4.057,7.714H16.7A7.438,7.438,0,0,1,24.06,1.246h9.679A7.438,7.438,0,0,1,41.1,7.714H53.743a3.557,3.557,0,0,1,3.549,3.549V43.236a3.565,3.565,0,0,1-3.549,3.548H4.057A3.541,3.541,0,0,1,1.55,45.743l-.057-.062a3.54,3.54,0,0,1-.985-2.445V11.263A3.557,3.557,0,0,1,4.057,7.714ZM44.219,26.239v6.487h1.593V25.863l-1.593.376Zm3.529-.833v7.32h2.5a.968.968,0,0,1,0,1.936h-2.5v2.15a2.739,2.739,0,0,1-2.73,2.923,2.814,2.814,0,0,1-1.115-.241,2.785,2.785,0,0,1-1.62-2.682v-2.15h-2.5a.968.968,0,0,1,0-1.936h2.5V26.7L29.137,29.8a.962.962,0,0,1-.457,0L15.517,26.7v6.031h2.5a.968.968,0,1,1,0,1.936h-2.5v2.15a2.785,2.785,0,0,1-1.62,2.682,2.746,2.746,0,0,1-1.115.237,2.668,2.668,0,0,1-1.114-.236,2.78,2.78,0,0,1-1.616-2.683v-2.15h-2.5a.968.968,0,1,1,0-1.936h2.5v-7.32L2.444,23.611V43.236a1.605,1.605,0,0,0,.433,1.1l.042.04a1.61,1.61,0,0,0,1.139.475H53.743a1.621,1.621,0,0,0,1.613-1.613V23.611l-7.608,1.795Zm-3.529,9.256v2.15a.932.932,0,0,0,.47.92.811.811,0,0,0,.328.071.885.885,0,0,0,.325-.069.938.938,0,0,0,.469-.922v-2.15H44.219ZM11.988,32.726h1.593V26.239l-1.593-.376Zm1.593,1.936H11.988v2.15a.933.933,0,0,0,.47.921.782.782,0,0,0,.324.066.749.749,0,0,0,.328-.067.932.932,0,0,0,.47-.92v-2.15ZM2.444,21.625,28.9,27.867l26.456-6.242V11.263A1.621,1.621,0,0,0,53.743,9.65H40.194a.968.968,0,0,1-.968-.968V8.668a5.5,5.5,0,0,0-5.487-5.487H24.06a5.5,5.5,0,0,0-5.487,5.487v.014a.968.968,0,0,1-.968.968H4.057a1.621,1.621,0,0,0-1.613,1.613V21.625ZM21.319,7.714h15.16a2.921,2.921,0,0,0-.69-1.1l-.043-.046a2.892,2.892,0,0,0-2.007-.808H24.06a2.912,2.912,0,0,0-2.741,1.949ZM37.61,9.65H20.19a.968.968,0,0,1-.968-.968V8.668A4.824,4.824,0,0,1,20.64,5.256l.006-.006A4.825,4.825,0,0,1,24.06,3.829h9.679A4.823,4.823,0,0,1,37.1,5.2l.059.055a4.826,4.826,0,0,1,1.421,3.418v.014a.968.968,0,0,1-.968.968Z" transform="translate(0 0)"/></g></svg>