<svg xmlns="http://www.w3.org/2000/svg" width="36.383" height="23.542" viewBox="0 0 36.383 23.542"><defs><style>.a{fill:#fff;}</style></defs><g transform="translate(-16.354 -28.229)"><path class="a" d="M37.537,36.146H33.257a1.07,1.07,0,1,0,0,2.14h4.281a1.07,1.07,0,1,0,0-2.14Z" transform="translate(-7.273 -3.636)"/><path class="a" d="M37.537,44.063H33.257a1.07,1.07,0,0,0,0,2.14h4.281a1.07,1.07,0,1,0,0-2.14Z" transform="translate(-7.273 -7.273)"/><path class="a" d="M37.537,51.979H33.257a1.07,1.07,0,1,0,0,2.14h4.281a1.07,1.07,0,1,0,0-2.14Z" transform="translate(-7.273 -10.909)"/><path class="a" d="M57.008,38.286h4.281a1.07,1.07,0,0,0,0-2.14H57.008a1.07,1.07,0,1,0,0,2.14Z" transform="translate(-18.182 -3.636)"/><path class="a" d="M51.667,32.51h-3.21V29.3a1.07,1.07,0,0,0-1.07-1.07H38.826a5.338,5.338,0,0,0-4.281,2.15,5.336,5.336,0,0,0-4.281-2.15H21.7a1.07,1.07,0,0,0-1.07,1.07V32.51H17.424a1.07,1.07,0,0,0-1.07,1.07V50.7a1.07,1.07,0,0,0,1.07,1.07H30.265a1.07,1.07,0,1,0,0-2.14H18.495V34.649h2.14V46.42a1.07,1.07,0,0,0,1.07,1.07h8.56a3.21,3.21,0,0,1,3.21,3.211,1.07,1.07,0,1,0,2.14,0,3.21,3.21,0,0,1,3.21-3.211h8.562a1.07,1.07,0,0,0,1.07-1.07V34.649H50.6V49.63H38.826a1.07,1.07,0,1,0,0,2.14H51.667a1.07,1.07,0,0,0,1.07-1.07V33.58A1.07,1.07,0,0,0,51.667,32.51ZM38.826,45.35h0a5.32,5.32,0,0,0-3.211,1.078V33.58h-2.14V46.428a5.322,5.322,0,0,0-3.21-1.078H22.774V30.37h7.49a3.21,3.21,0,0,1,3.21,3.21h2.14a3.21,3.21,0,0,1,3.21-3.21h7.49V45.35Z"/><path class="a" d="M61.287,44.063H57.007a1.07,1.07,0,0,0,0,2.14h4.281a1.07,1.07,0,1,0,0-2.14Z" transform="translate(-18.182 -7.273)"/><path class="a" d="M61.287,51.979H57.007a1.07,1.07,0,1,0,0,2.14h4.281a1.07,1.07,0,1,0,0-2.14Z" transform="translate(-18.182 -10.909)"/></g></svg>