<svg xmlns="http://www.w3.org/2000/svg" xmlns:xlink="http://www.w3.org/1999/xlink" width="225.659" height="29.354" viewBox="0 0 225.659 29.354"><defs><style>.a{fill:#fff;}.b{clip-path:url(#a);}</style><clipPath id="a"><rect class="a" width="225.659" height="29.354"/></clipPath></defs><g class="b"><path class="a" d="M1.464,35.88V31.733H4.912a3.083,3.083,0,0,0,1.39-.309A3.367,3.367,0,0,0,7.375,30.6a3.8,3.8,0,0,0,.692-1.19,4,4,0,0,0,.243-1.382,3.642,3.642,0,0,0-.26-1.341A4.029,4.029,0,0,0,7.326,25.5a3.578,3.578,0,0,0-1.105-.846,3.138,3.138,0,0,0-1.406-.317H0V35.881Zm0-10.245H4.732a1.874,1.874,0,0,1,.8.176,2.047,2.047,0,0,1,.668.5,2.6,2.6,0,0,1,.627,1.709,2.922,2.922,0,0,1-.148.926,2.511,2.511,0,0,1-.407.772,1.846,1.846,0,0,1-.625.521,1.764,1.764,0,0,1-.821.187H1.464Zm16.173,9.847a5.493,5.493,0,0,0,1.722-1.287,6.153,6.153,0,0,0,.058-8.088,5.655,5.655,0,0,0-1.707-1.341,4.75,4.75,0,0,0-2.213-.513,4.938,4.938,0,0,0-2.169.481A5.481,5.481,0,0,0,11.6,26.026a6.115,6.115,0,0,0-1.146,1.869,5.985,5.985,0,0,0-.414,2.213,6.212,6.212,0,0,0,.389,2.162,6.014,6.014,0,0,0,1.107,1.878,5.484,5.484,0,0,0,1.714,1.318,5.192,5.192,0,0,0,4.391.016m-5.847-7.035A4.667,4.667,0,0,1,12.578,27a3.991,3.991,0,0,1,1.244-1.024,3.461,3.461,0,0,1,1.658-.391,3.42,3.42,0,0,1,1.6.375,4.027,4.027,0,0,1,1.251,1,4.491,4.491,0,0,1,.814,1.448,5.189,5.189,0,0,1,.016,3.342,4.669,4.669,0,0,1-.78,1.455,4.04,4.04,0,0,1-1.244,1.041,3.408,3.408,0,0,1-1.66.4,3.533,3.533,0,0,1-1.626-.375A3.894,3.894,0,0,1,12.6,33.261a4.67,4.67,0,0,1-.8-1.455,5.182,5.182,0,0,1-.009-3.36M37.53,24.333l-2.9,9.384-3.168-9.384H29.874l-3.057,9.384L23.9,24.333h-1.64l3.658,11.548h1.529l3.232-9.158L34,35.879h1.53l3.658-11.548Zm5.451,10.245V30.6H48.4V29.374H42.981v-3.74h6.228v-1.3H41.516V35.881h7.839v-1.3Zm10.49,1.3V31.733h3.057l2.634,4.146h1.658l-2.8-4.424a2.975,2.975,0,0,0,1-.472,3.247,3.247,0,0,0,.765-.78,3.67,3.67,0,0,0,.488-1.017,3.97,3.97,0,0,0,.169-1.161,3.64,3.64,0,0,0-.259-1.343,4.029,4.029,0,0,0-.724-1.187,3.578,3.578,0,0,0-1.105-.846,3.138,3.138,0,0,0-1.406-.317H52.005V35.881Zm0-10.245h3.394a1.808,1.808,0,0,1,.8.187,2.046,2.046,0,0,1,.668.521,2.75,2.75,0,0,1,.457.763,2.488,2.488,0,0,1,.171.92,2.872,2.872,0,0,1-.148.909,2.511,2.511,0,0,1-.407.772,1.936,1.936,0,0,1-.625.529,1.727,1.727,0,0,1-.821.194h-3.5Zm11.334,8.943V30.6h5.415V29.374H64.8v-3.74h6.228v-1.3H63.339V35.881h7.837v-1.3Zm13.025,1.3a6.137,6.137,0,0,0,2.3-.414,5.034,5.034,0,0,0,1.763-1.172,5.124,5.124,0,0,0,1.124-1.82,6.91,6.91,0,0,0,.389-2.38,6.992,6.992,0,0,0-.349-2.236,5.141,5.141,0,0,0-1.048-1.829,4.981,4.981,0,0,0-1.748-1.237,6.087,6.087,0,0,0-2.433-.455h-4V35.883Zm3.829-4.008a4.138,4.138,0,0,1-.78,1.422,3.554,3.554,0,0,1-1.286.943,4.33,4.33,0,0,1-1.763.34H75.29V25.635h2.537a4.327,4.327,0,0,1,1.741.333,3.756,3.756,0,0,1,1.293.918,3.85,3.85,0,0,1,.8,1.408,6.057,6.057,0,0,1,0,3.578m17.515-.83A2.913,2.913,0,0,0,97.6,29.96,2.643,2.643,0,0,0,98.83,28.87a3.093,3.093,0,0,0,.432-1.6,3.129,3.129,0,0,0-.187-1.064,3.087,3.087,0,0,0-.529-.943,2.7,2.7,0,0,0-.83-.675,2.28,2.28,0,0,0-1.089-.261H90.887V35.88h5.481a3.992,3.992,0,0,0,1.309-.211,3.37,3.37,0,0,0,1.073-.6,2.838,2.838,0,0,0,.731-.941,2.745,2.745,0,0,0,.268-1.221,3.075,3.075,0,0,0-.576-1.862m-1.051,2.35a1.914,1.914,0,0,1-.407.627,2.054,2.054,0,0,1-.6.43,1.72,1.72,0,0,1-.749.164H92.348V30.645h4.13a1.582,1.582,0,0,1,.715.162,1.763,1.763,0,0,1,.562.441,2.183,2.183,0,0,1,.375.643,2.121,2.121,0,0,1,.137.756,1.958,1.958,0,0,1-.146.749m-2-7.794a1.593,1.593,0,0,1,.675.146,1.538,1.538,0,0,1,.536.407,2.018,2.018,0,0,1,.349.617,2.239,2.239,0,0,1,.13.767,2,2,0,0,1-.511,1.349,1.771,1.771,0,0,1-.562.414,1.647,1.647,0,0,1-.715.153H92.351V25.6Zm4.651-1.269,4.375,7.3V35.88h1.464V31.668L111,24.333h-1.593L105.88,30.35l-3.5-6.017Z" transform="translate(0 -13.562)"/><path class="a" d="M361.418,16.052a.149.149,0,0,0,.007.052.143.143,0,0,1,.009.038V28.766c0,.353-.009.681-.023.983s-.034.583-.054.846q-.079.8-.186,1.406a6.612,6.612,0,0,1-1.449,2.858,7.087,7.087,0,0,1-5.6,2.3,7.488,7.488,0,0,1-4.947-1.6,5.989,5.989,0,0,1-1.635-2.042,1.743,1.743,0,0,1-.2-.8,1.612,1.612,0,0,1,.139-.661,1.723,1.723,0,0,1,.918-.9,1.7,1.7,0,0,1,2.289,1.027c.052.1.1.193.155.279a2.824,2.824,0,0,0,.169.25,3.749,3.749,0,0,0,3.145,1.363q3.808,0,3.808-4.564V28.342l-.016-.015c0-.212-.044-.335-.13-.371a.414.414,0,0,0-.3.007,1.466,1.466,0,0,0-.432.257h-.016a6.684,6.684,0,0,1-8.895-.875,7.969,7.969,0,0,1-1.975-5.518,8.463,8.463,0,0,1,1.835-5.474,6.43,6.43,0,0,1,5.213-2.389,6.119,6.119,0,0,1,4.716,2.087,1.592,1.592,0,0,1,.139-.657,1.652,1.652,0,0,1,.379-.536,1.768,1.768,0,0,1,.555-.357,1.822,1.822,0,0,1,1.341,0,1.7,1.7,0,0,1,.547.357,1.609,1.609,0,0,1,.362.536,1.651,1.651,0,0,1,.132.657m-4.364,9.01a4.956,4.956,0,0,0,1.064-3.295,4.849,4.849,0,0,0-1.172-3.4,3.939,3.939,0,0,0-3.037-1.316A3.753,3.753,0,0,0,350.8,18.47a5.153,5.153,0,0,0-1.033,3.327,5.068,5.068,0,0,0,1.034,3.278,3.767,3.767,0,0,0,3.115,1.406,3.868,3.868,0,0,0,3.145-1.421" transform="translate(-193.602 -7.808)"/><path class="a" d="M383.929,21.667a7.245,7.245,0,0,1,2.328-5.427,8.33,8.33,0,0,1,11.377.015,7.419,7.419,0,0,1,2.314,5.533,7.381,7.381,0,0,1-2.328,5.547,8.044,8.044,0,0,1-5.751,2.224,7.71,7.71,0,0,1-5.659-2.269,7.545,7.545,0,0,1-2.281-5.623m3.545.061a4.907,4.907,0,0,0,1.2,3.491,4.74,4.74,0,0,0,6.507.014A4.78,4.78,0,0,0,396.4,21.8a4.779,4.779,0,0,0-1.217-3.43,4.683,4.683,0,0,0-6.476,0,4.679,4.679,0,0,0-1.234,3.356" transform="translate(-214.701 -7.83)"/><path class="a" d="M438.652,16.052a.149.149,0,0,0,.007.052.143.143,0,0,1,.009.038V28.766c0,.353-.009.681-.023.983s-.034.583-.054.846q-.079.8-.186,1.406a6.612,6.612,0,0,1-1.449,2.858,7.087,7.087,0,0,1-5.6,2.3,7.488,7.488,0,0,1-4.947-1.6,5.988,5.988,0,0,1-1.635-2.042,1.743,1.743,0,0,1-.2-.8,1.612,1.612,0,0,1,.139-.661,1.723,1.723,0,0,1,.918-.9,1.7,1.7,0,0,1,2.289,1.027c.052.1.1.193.155.279a2.831,2.831,0,0,0,.169.25,3.749,3.749,0,0,0,3.145,1.363q3.808,0,3.808-4.564V28.342l-.016-.015c0-.212-.044-.335-.13-.371a.414.414,0,0,0-.3.007,1.466,1.466,0,0,0-.432.257H434.3a6.684,6.684,0,0,1-8.895-.875,7.97,7.97,0,0,1-1.975-5.518,8.463,8.463,0,0,1,1.835-5.474,6.43,6.43,0,0,1,5.213-2.389,6.119,6.119,0,0,1,4.716,2.087,1.593,1.593,0,0,1,.139-.657,1.652,1.652,0,0,1,.379-.536,1.768,1.768,0,0,1,.555-.357,1.822,1.822,0,0,1,1.341,0,1.7,1.7,0,0,1,.547.357,1.608,1.608,0,0,1,.362.536,1.65,1.65,0,0,1,.132.657m-4.364,9.01a4.956,4.956,0,0,0,1.064-3.295,4.849,4.849,0,0,0-1.172-3.4,3.943,3.943,0,0,0-3.037-1.316,3.753,3.753,0,0,0-3.115,1.421A5.153,5.153,0,0,0,427,21.8a5.068,5.068,0,0,0,1.034,3.278,3.767,3.767,0,0,0,3.115,1.406,3.868,3.868,0,0,0,3.145-1.421" transform="translate(-236.793 -7.808)"/><path class="a" d="M465.226,4.431a2.174,2.174,0,0,1-1.6-.65,2.146,2.146,0,0,1-.677-1.587,2.1,2.1,0,0,1,.677-1.542A2.189,2.189,0,0,1,465.209,0a2.274,2.274,0,0,1,1.605.65,2.075,2.075,0,0,1,.661,1.557,2.124,2.124,0,0,1-.661,1.572,2.153,2.153,0,0,1-1.587.65m0,2.136a1.729,1.729,0,0,1,.686.137,1.7,1.7,0,0,1,.547.371,1.849,1.849,0,0,1,.371.544,1.607,1.607,0,0,1,.139.657V19.568a.06.06,0,0,0-.016.044,1.545,1.545,0,0,1-.139.65,1.738,1.738,0,0,1-.371.529,1.8,1.8,0,0,1-.546.364,1.708,1.708,0,0,1-.672.135,1.682,1.682,0,0,1-.67-.135,1.771,1.771,0,0,1-.547-.364,1.708,1.708,0,0,1-.371-.536,1.6,1.6,0,0,1-.139-.657V8.275a1.606,1.606,0,0,1,.139-.657,1.816,1.816,0,0,1,.371-.544,1.66,1.66,0,0,1,.547-.371,1.682,1.682,0,0,1,.67-.137" transform="translate(-258.891 -0.001)"/><path class="a" d="M492.612,16.052a.149.149,0,0,0,.007.052.144.144,0,0,1,.009.038V28.766c0,.353-.009.681-.023.983s-.034.583-.054.846q-.079.8-.186,1.406a6.613,6.613,0,0,1-1.449,2.858,7.087,7.087,0,0,1-5.6,2.3,7.488,7.488,0,0,1-4.947-1.6,5.989,5.989,0,0,1-1.635-2.042,1.744,1.744,0,0,1-.2-.8,1.611,1.611,0,0,1,.139-.661,1.723,1.723,0,0,1,.918-.9,1.7,1.7,0,0,1,2.289,1.027c.052.1.1.193.155.279a2.83,2.83,0,0,0,.169.25,3.749,3.749,0,0,0,3.145,1.363q3.808,0,3.808-4.564V28.342l-.016-.015c0-.212-.044-.335-.13-.371a.414.414,0,0,0-.3.007,1.466,1.466,0,0,0-.432.257h-.016a6.684,6.684,0,0,1-8.895-.875,7.969,7.969,0,0,1-1.975-5.518,8.463,8.463,0,0,1,1.835-5.474,6.43,6.43,0,0,1,5.213-2.389,6.119,6.119,0,0,1,4.716,2.087,1.592,1.592,0,0,1,.139-.657,1.652,1.652,0,0,1,.379-.536,1.769,1.769,0,0,1,.555-.357,1.822,1.822,0,0,1,1.341,0,1.7,1.7,0,0,1,.547.357,1.6,1.6,0,0,1,.362.536,1.65,1.65,0,0,1,.132.657m-4.364,9.01a4.956,4.956,0,0,0,1.064-3.295,4.849,4.849,0,0,0-1.172-3.4A3.939,3.939,0,0,0,485.1,17.05a3.753,3.753,0,0,0-3.115,1.421,5.152,5.152,0,0,0-1.031,3.327,5.068,5.068,0,0,0,1.032,3.278,3.767,3.767,0,0,0,3.115,1.406,3.868,3.868,0,0,0,3.145-1.421" transform="translate(-266.969 -7.808)"/><path class="a" d="M306.17,46.516a11.825,11.825,0,0,1-1.637.124A11.66,11.66,0,0,1,302.8,46.5v7.159a1.563,1.563,0,0,0,.139.657,1.7,1.7,0,0,0,.369.537,1.771,1.771,0,0,0,.547.364,1.736,1.736,0,0,0,1.342,0,1.756,1.756,0,0,0,.918-.893,1.518,1.518,0,0,0,.155-.648V46.5Z" transform="translate(-169.333 -26.004)"/><path class="a" d="M287,16.587a10.094,10.094,0,0,0,14.076.137,9.626,9.626,0,0,0,.327-13.61c-.062-.065-.125-.13-.189-.193A10.093,10.093,0,0,0,288.36,1.8a9.853,9.853,0,0,0-1.224.985,10.092,10.092,0,0,0-.92,1.035A9.614,9.614,0,0,0,287,16.587m1.881-12.06a7.571,7.571,0,0,1,10.556.1,7.216,7.216,0,0,1,.044,10.205c-.048.049-.1.1-.149.146a7.571,7.571,0,0,1-10.555-.1,7.216,7.216,0,0,1-.045-10.205q.073-.074.148-.145" transform="translate(-158.907 0)"/><path class="a" d="M310.243,15.167a1.2,1.2,0,0,0,1.212-1.189h0a5.062,5.062,0,0,0-1.538-3.64A5.267,5.267,0,0,0,306.2,8.829a1.2,1.2,0,0,0-1.212,1.189h0a1.2,1.2,0,0,0,1.212,1.19,2.837,2.837,0,0,1,2,.808,2.732,2.732,0,0,1,.828,1.961,1.2,1.2,0,0,0,1.212,1.188Z" transform="translate(-170.558 -4.937)"/></g></svg>